<?xml version="1.0" standalone="no"?>
<!DOCTYPE svg PUBLIC "-//W3C//DTD SVG 20010904//EN"
 "http://www.w3.org/TR/2001/REC-SVG-20010904/DTD/svg10.dtd">
<svg version="1.0" xmlns="http://www.w3.org/2000/svg"
 width="700.000000pt" height="700.000000pt" viewBox="0 0 700.000000 700.000000"
 preserveAspectRatio="xMidYMid meet">
<metadata>
Created by potrace 1.14, written by Peter Selinger 2001-2017
</metadata>
<g transform="translate(0.000000,700.000000) scale(0.100000,-0.100000)"
fill="#000000" stroke="none">
<path d="M1140 6989 c-546 -71 -990 -482 -1112 -1029 l-23 -105 0 -2355 0
-2355 23 -105 c57 -255 177 -475 357 -655 180 -180 400 -300 655 -357 l105
-23 2355 0 c2257 0 2359 1 2439 19 272 59 495 179 677 362 183 185 301 405
360 675 18 80 19 182 19 2439 l0 2355 -23 105 c-57 254 -176 472 -356 654
-203 205 -478 339 -768 376 -101 12 -4610 12 -4708 -1z m3568 -1754 c103 -31
122 -58 441 -618 314 -550 323 -570 302 -668 -6 -27 -18 -63 -26 -79 -14 -27
-1731 -2106 -1799 -2178 -42 -45 -77 -62 -126 -62 -51 0 -85 17 -131 67 -47
49 -1758 2118 -1788 2161 -35 50 -47 146 -27 213 9 33 133 260 300 555 311
544 335 578 434 608 73 23 2345 23 2420 1z"/>
<path d="M2362 4863 c-63 -108 -398 -696 -411 -720 l-12 -23 314 0 315 0 5 28
c3 15 80 193 171 396 91 204 166 373 166 378 0 4 -115 8 -255 8 l-254 0 -39
-67z"/>
<path d="M3255 4898 c-7 -18 -88 -199 -179 -402 -91 -203 -164 -371 -163 -373
2 -2 268 -2 590 -1 l586 3 -179 400 -179 400 -231 3 -231 2 -14 -32z"/>
<path d="M4090 4921 c0 -5 72 -169 160 -365 87 -196 165 -374 171 -396 l12
-40 314 0 c173 0 312 3 310 8 -3 4 -107 186 -232 405 l-227 397 -254 0 c-146
0 -254 -4 -254 -9z"/>
<path d="M2056 3788 c12 -21 1105 -1338 1110 -1338 2 0 -3 17 -11 38 -8 20
-125 323 -259 672 l-244 635 -302 3 c-241 2 -300 0 -294 -10z"/>
<path d="M3002 3786 c7 -31 493 -1286 498 -1286 4 0 455 1167 496 1283 6 16
-22 17 -496 17 -419 0 -501 -2 -498 -14z"/>
<path d="M4341 3778 c-5 -13 -118 -306 -251 -653 -133 -346 -246 -640 -251
-652 -5 -13 -7 -23 -4 -23 4 0 1097 1318 1109 1338 6 9 -56 12 -294 12 l-300
0 -9 -22z"/>
</g>
</svg>
