<svg viewBox="0 0 24 24" fill="none" xmlns="http://www.w3.org/2000/svg">
<path fill-rule="evenodd" clip-rule="evenodd" d="M11.2929 4.29289C10.9024 4.68342 10.9024 5.31658 11.2929 5.70711L16.5858 11H5C4.44772 11 4 11.4477 4 12C4 12.5523 4.44772 13 5 13H16.5858L11.2929 18.2929C10.9024 18.6834 10.9024 19.3166 11.2929 19.7071C11.6834 20.0976 12.3166 20.0976 12.7071 19.7071L19.7066 12.7076L19.7071 12.7071M19.7065 11.2923L12.7071 4.29289C12.3166 3.90237 11.6834 3.90237 11.2929 4.29289M19.7136 11.2995C19.7115 11.2973 19.7093 11.2951 19.7071 11.2929L19.7065 11.2923" fill="currentColor"/>
</svg>
