<svg width="14" height="14" viewBox="0 0 14 14" fill="none" xmlns="http://www.w3.org/2000/svg">
<path d="M9.15817 7.40829L5.65817 10.9083C5.5415 11.025 5.42484 11.0833 5.24984 11.0833C5.07484 11.0833 4.95817 11.025 4.8415 10.9083C4.60817 10.675 4.60817 10.325 4.8415 10.0916L7.93317 6.99996L4.8415 3.90829C4.60817 3.67496 4.60817 3.32496 4.8415 3.09163C5.07484 2.85829 5.42484 2.85829 5.65817 3.09163L9.15817 6.59163C9.3915 6.82496 9.3915 7.17496 9.15817 7.40829Z" fill="black"/>
<mask id="mask0_1394_73968" style="mask-type:alpha" maskUnits="userSpaceOnUse" x="4" y="2" width="6" height="10">
<path d="M9.15817 7.40829L5.65817 10.9083C5.5415 11.025 5.42484 11.0833 5.24984 11.0833C5.07484 11.0833 4.95817 11.025 4.8415 10.9083C4.60817 10.675 4.60817 10.325 4.8415 10.0916L7.93317 6.99996L4.8415 3.90829C4.60817 3.67496 4.60817 3.32496 4.8415 3.09163C5.07484 2.85829 5.42484 2.85829 5.65817 3.09163L9.15817 6.59163C9.3915 6.82496 9.3915 7.17496 9.15817 7.40829Z" fill="white"/>
</mask>
<g mask="url(#mask0_1394_73968)">
<rect width="14" height="14" fill="#6E6B7B"/>
</g>
</svg>
