<svg viewBox="0 0 24 24" fill="none" xmlns="http://www.w3.org/2000/svg">
<path fill-rule="evenodd" clip-rule="evenodd" d="M13.3 0.600781L21.3 4.60078C22.4 5.10078 23 6.10078 23 7.20078V16.7008C23 17.9008 22.3 18.9008 21.3 19.4008L13.3 23.4008C12.9 23.6008 12.5 23.7008 12 23.7008C11.6 23.7008 11.1 23.6008 10.7 23.4008L2.7 19.4008C1.6 18.9008 1 17.8008 1 16.7008V7.20078C1 6.10078 1.6 5.10078 2.6 4.60078L10.6 0.600781C11.5 0.200781 12.5 0.200781 13.3 0.600781ZM12 2.20078C11.9 2.20078 11.7 2.20078 11.6 2.30078L4.2 6.00078L12 9.90078L19.8 6.00078L12.4 2.30078C12.3 2.20078 12.2 2.20078 12 2.20078ZM3.5 17.7008C3.2 17.5008 3 17.1008 3 16.8008V7.60078L11 11.6008V21.4008L3.5 17.7008ZM13 21.4008L20.4 17.7008C20.8 17.5008 21 17.2008 21 16.8008V7.60078L13 11.6008V21.4008Z" fill="currentColor"/>
</svg>