<svg viewBox="0 0 24 24" fill="none" xmlns="http://www.w3.org/2000/svg">
<path d="M12 6H7.69404C7.5208 6 7.36084 6.09283 7.27489 6.24324L5.16593 9.93392C5.06618 10.1085 5.08507 10.3266 5.21335 10.4814L12 18.6723" stroke="black" stroke-width="1.2384" stroke-linecap="round"/>
<path d="M11.9999 6.00006H16.3059C16.4791 6.00006 16.6391 6.09289 16.725 6.2433L18.834 9.93398C18.9338 10.1086 18.9149 10.3267 18.7866 10.4815L11.9999 18.6723" stroke="black" stroke-width="1.2384" stroke-linecap="round"/>
<path d="M5.12079 10.3452H18.6379" stroke="black" stroke-width="1.2384" stroke-linecap="round"/>
<path d="M10.5519 6.36261L9.06508 9.67928C9.01248 9.7966 9.00886 9.93005 9.05502 10.05L12.0001 17.7073" stroke="black" stroke-width="1.2384" stroke-linecap="round"/>
<path d="M13.4481 6.36261L14.9349 9.67928C14.9875 9.7966 14.9911 9.93005 14.945 10.05L11.9999 17.7073" stroke="black" stroke-width="1.2384" stroke-linecap="round"/>
</svg>
