<svg xmlns="http://www.w3.org/2000/svg" fill="none" viewBox="0 0 637 503">
    <mask id="a" width="300" height="400" x="337" y="76" maskUnits="userSpaceOnUse" style="mask-type:alpha">
        <path fill="#D9D9D9" d="m358.089 100.77-20.671-24.582 227.384 4.469 71.79 143.023-197.215 252.244-101.959-24.582 42.46-50.281-21.789-130.173 14.805-55.589-24.861-79.612 10.056-34.917Z"/>
    </mask>
    <g fill="#EAEAEA" fill-rule="evenodd" clip-rule="evenodd" mask="url(#a)" opacity=".86">
        <path d="M235.744 101.916a28.352 28.352 0 0 1 24.616-14.285h110.79c8.799 0 15.931 7.133 15.931 15.931 0 8.799-7.132 15.932-15.931 15.932H262.398l-52.046 91.079 173.066 208.872c5.613 6.775 4.672 16.818-2.103 22.432-6.776 5.613-16.819 4.672-22.432-2.103L184.267 229.03a28.352 28.352 0 0 1-2.785-32.156l54.262-94.958Z"/>
        <path d="M506.553 101.916a28.352 28.352 0 0 0-24.616-14.285h-110.79c-8.799 0-15.932 7.133-15.932 15.931 0 8.799 7.133 15.932 15.932 15.932h108.752l52.045 91.079-173.065 208.872c-5.613 6.775-4.672 16.818 2.103 22.432 6.775 5.613 16.819 4.672 22.432-2.103L558.03 229.03a28.352 28.352 0 0 0 2.785-32.156l-54.262-94.958Z"/>
        <path d="M178.227 215.361c0-8.799 7.132-15.931 15.931-15.931h347.783c8.799 0 15.932 7.132 15.932 15.931s-7.133 15.932-15.932 15.932H194.158c-8.799 0-15.931-7.133-15.931-15.932Z"/>
        <path d="M340.396 98.359c8.029 3.599 11.62 13.025 8.021 21.054l-37.656 84.002 75.25 195.652c3.159 8.212-.938 17.43-9.15 20.588-8.212 3.159-17.43-.938-20.589-9.15L280.497 213.49a28.355 28.355 0 0 1 .591-21.776l38.254-85.335c3.599-8.028 13.025-11.62 21.054-8.02Z"/>
        <path d="M401.901 98.359c-8.029 3.599-11.62 13.025-8.021 21.054l37.656 84.002-75.25 195.652c-3.159 8.212.938 17.43 9.15 20.588 8.212 3.159 17.43-.938 20.589-9.15L461.8 213.49a28.355 28.355 0 0 0-.591-21.776l-38.254-85.335c-3.599-8.028-13.025-11.62-21.054-8.02Z"/>
    </g>
    <mask id="b" width="313" height="411" x="45" y="49" maskUnits="userSpaceOnUse" style="mask-type:alpha">
        <path fill="#D9D9D9" d="m270.15 106.033-25.639-20.566L80.519 49.983 45.524 256.308l277.882 202.814 34.193-63.258-50.045-123.877 3.912-54.715-43.642-78.072 2.326-33.168Z"/>
    </mask>
    <g fill="#EAEAEA" fill-rule="evenodd" clip-rule="evenodd" mask="url(#b)" opacity=".86">
        <path d="M154.557 132.973a28.353 28.353 0 0 1 20.873-19.348l108.079-24.36c8.584-1.934 17.11 3.456 19.045 12.039 1.934 8.584-3.456 17.11-12.039 19.045L184.424 144.26l-30.747 100.293 214.755 165.709c6.966 5.375 8.256 15.38 2.881 22.346-5.375 6.966-15.38 8.255-22.346 2.88L132.288 268.295a28.352 28.352 0 0 1-9.786-30.757l32.055-104.565Z"/>
        <path d="M418.75 73.428a28.352 28.352 0 0 0-27.155-8.523L283.516 89.263c-8.583 1.934-13.973 10.46-12.039 19.044 1.935 8.584 10.462 13.974 19.045 12.039l106.091-23.911 70.797 77.407-122.905 241.812c-3.987 7.844-.86 17.434 6.983 21.421 7.844 3.987 17.434.86 21.421-6.984l124.007-243.979a28.352 28.352 0 0 0-4.354-31.981L418.75 73.428Z"/>
        <path d="M123.399 256.286c-1.934-8.584 3.456-17.11 12.039-19.045l339.273-76.466c8.583-1.935 17.11 3.455 19.044 12.038 1.935 8.584-3.455 17.11-12.039 19.045l-339.272 76.466c-8.584 1.935-17.11-3.455-19.045-12.038Z"/>
        <path d="M255.869 106.493c8.624 1.746 14.2 10.152 12.454 18.776l-18.265 90.226 116.426 174.318c4.887 7.317 2.917 17.21-4.399 22.097-7.317 4.887-17.21 2.917-22.097-4.4L222.75 231.977a28.353 28.353 0 0 1-4.212-21.373l18.555-91.657c1.746-8.624 10.152-14.2 18.776-12.454Z"/>
        <path d="M315.878 92.97c-7.041 5.277-8.471 15.262-3.195 22.303l55.204 73.667-30.391 207.409c-1.276 8.706 4.747 16.798 13.453 18.073 8.706 1.276 16.797-4.747 18.073-13.453l30.603-208.854a28.35 28.35 0 0 0-5.364-21.113l-56.08-74.836c-5.276-7.041-15.262-8.472-22.303-3.195Z"/>
    </g>
    <path fill="#EAEAEA" d="m318.191 184.127 4.037-21.584 18.167 12.427-3.364 15.698-18.84-6.541ZM289.431 104.765l-9.712-9.763 1.457-2.79 16.025 5.812v8.834l-7.77 7.438v-9.531ZM336.309 113.695l4.6-16.562 6.441 3.68v12.882h-11.041ZM307.484 76.37l5.521-23.003 9.662 17.943-15.183 5.06ZM305.162 421.98l-17.482-3.286 11.007-10.516 6.475 13.802ZM314.121 439.73l26.946-2.346 3.881 16.006-16.006 3.881-14.821-17.541ZM264.905 448.972l6.222-11.587v27.129l-12.126-7.242 5.904-8.3ZM356.174 259.994l12.882 6.887v10.596h-12.882v-17.483Z"/>
</svg>
