<svg xmlns="http://www.w3.org/2000/svg" width="24" height="24" fill="none" viewBox="0 0 24 24">
  <path fill="currentColor" fill-rule="evenodd" d="M5.36 2.5c-.34.1-.63.33-.83.63-.27.41-3.06 5.31-3.16 5.56-.08.2-.11.4-.1.6.01.5.07.7.29.9.1.1 8.93 10.75 9.61 11.6.13.15.3.33.4.4.14.1.2.11.43.11.23 0 .29-.02.43-.12.1-.06.27-.24.4-.4l4.85-5.86c1.6-1.92 3.18-3.83 4.75-5.76a1.62 1.62 0 0 0 .22-1.43c-.09-.22-2.98-5.31-3.21-5.64-.2-.29-.5-.5-.83-.61-.25-.08-.35-.08-6.62-.08H5.62l-.26.1M8.7 4.36l-.92 2.05a59.65 59.65 0 0 0-.87 2.01l-.05.17H3.43l.08-.13 1.27-2.22 1.19-2.09H8.8l-.1.21Zm4.56-.16 1 2.21.97 2.16-3.23.01H8.77l.98-2.22.99-2.21h1.25c.95 0 1.25.01 1.28.05m5.95 2.04 1.27 2.22.08.13h-3.44l-.05-.17c-.28-.69-.58-1.37-.89-2.05l-.91-2.05-.08-.17h2.83l1.2 2.09m-11.86 4.2c.1.23 2.73 7.09 2.77 7.21.06.15.06.16-.01.08-.38-.45-6.05-7.3-6.05-7.32 0-.01.74-.02 1.64-.02 1.27 0 1.64.01 1.65.05m7.35-.02c0 .06-2.7 7.05-2.72 7.05-.02 0-.64-1.6-1.39-3.54L9.25 10.4h2.74c1.5 0 2.73.01 2.73.03m5.2 0c-.03.06-6.1 7.37-6.1 7.36l1.37-3.63 1.42-3.69c.03-.07.14-.07 1.67-.07.9 0 1.64.02 1.63.03" clip-rule="evenodd"/>
</svg>
