<svg width="26" height="25" viewBox="0 0 26 25" fill="none" xmlns="http://www.w3.org/2000/svg"
><path fill-rule="evenodd" clip-rule="evenodd" d="M3.98246 3.24611V10.3282C3.98246 10.9353 4.38715 11.3399 4.99419 11.3399C5.60122 11.3399 6.00592 10.9353 6.00592 10.3282V3.24611C6.00592 2.63907 5.60122 2.23438 4.99419 2.23438C4.38715 2.23438 3.98246 2.63907 3.98246 3.24611ZM12.0763 12.3517C12.0763 11.7446 12.481 11.3399 13.088 11.3399C13.6951 11.3399 14.0998 11.7446 14.0998 12.3517V21.4573C14.0998 22.0643 13.6951 22.469 13.088 22.469C12.481 22.469 12.0763 22.0643 12.0763 21.4573V12.3517ZM21.1819 13.3634C21.7889 13.3634 22.1936 12.9587 22.1936 12.3517V3.24611C22.1936 2.63907 21.7889 2.23438 21.1819 2.23438C20.5748 2.23438 20.1701 2.63907 20.1701 3.24611V12.3517C20.1701 12.9587 20.5748 13.3634 21.1819 13.3634ZM0.947266 14.3751C0.947266 13.7681 1.35196 13.3634 1.959 13.3634H8.02938C8.63642 13.3634 9.04111 13.7681 9.04111 14.3751C9.04111 14.9822 8.63642 15.3869 8.02938 15.3869H6.00592V21.4573C6.00592 22.0643 5.60122 22.469 4.99419 22.469C4.38715 22.469 3.98246 22.0643 3.98246 21.4573V15.3869H1.959C1.35196 15.3869 0.947266 14.9822 0.947266 14.3751ZM16.1232 7.29303H14.0998V3.24611C14.0998 2.63907 13.6951 2.23438 13.088 2.23438C12.481 2.23438 12.0763 2.63907 12.0763 3.24611V7.29303H10.0528C9.4458 7.29303 9.04111 7.69772 9.04111 8.30476C9.04111 8.9118 9.4458 9.31649 10.0528 9.31649H16.1232C16.7303 9.31649 17.135 8.9118 17.135 8.30476C17.135 7.69772 16.7303 7.29303 16.1232 7.29303ZM17.135 16.3986C17.135 15.7916 17.5396 15.3869 18.1467 15.3869H24.2171C24.8241 15.3869 25.2288 15.7916 25.2288 16.3986C25.2288 17.0056 24.8241 17.4103 24.2171 17.4103H22.1936V21.4573C22.1936 22.0643 21.7889 22.469 21.1819 22.469C20.5748 22.469 20.1701 22.0643 20.1701 21.4573V17.4103H18.1467C17.5396 17.4103 17.135 17.0056 17.135 16.3986Z" fill="currentColor"/>
</svg>
