<svg viewBox="0 0 24 24" fill="none" xmlns="http://www.w3.org/2000/svg">
<path d="M12.0312 0C5.42038 0 0.0623779 5.358 0.0623779 11.9688C0.0623779 17.256 3.49078 21.7428 8.24758 23.3268C8.84638 23.4348 9.06238 23.0664 9.06238 22.7496C9.06238 22.4652 9.05278 21.7116 9.04918 20.7144C5.71918 21.4368 5.01598 19.1088 5.01598 19.1088C4.47358 17.7264 3.68758 17.358 3.68758 17.358C2.60158 16.6152 3.77038 16.632 3.77038 16.632C4.97278 16.716 5.60278 17.8656 5.60278 17.8656C6.67078 19.6944 8.40598 19.1664 9.08518 18.8604C9.19438 18.0864 9.50638 17.5584 9.84718 17.2596C7.19038 16.9584 4.39678 15.9312 4.39678 11.3436C4.39678 10.0392 4.86358 8.9688 5.62558 8.1336C5.50438 7.83 5.09038 6.612 5.74438 4.9656C5.74438 4.9656 6.74878 4.6428 9.03478 6.1908C9.99238 5.9256 11.0136 5.7924 12.03 5.7876C13.0488 5.7924 14.0712 5.9256 15.0252 6.1908C17.3124 4.6416 18.3156 4.9656 18.3156 4.9656C18.9696 6.612 18.5592 7.83 18.4344 8.1336C19.2024 8.9688 19.6632 10.038 19.6632 11.3436C19.6632 15.9432 16.8672 16.9536 14.2008 17.25C14.6268 17.6196 15.0108 18.3492 15.0108 19.4652C15.0108 21.066 14.9964 22.3572 14.9964 22.7496C14.9964 23.07 15.21 23.442 15.8208 23.3244C20.5752 21.738 24 17.2548 24 11.9688C24 5.358 18.642 0 12.0312 0Z" fill="#211F1F"/>
</svg>
