<svg viewBox="0 0 24 24" fill="none" xmlns="http://www.w3.org/2000/svg">
<path fill-rule="evenodd" clip-rule="evenodd" d="M23.044 9.80799H11.9413V14.4093H18.3306C17.736 17.3333 15.2466 19.0133 11.9413 19.0133C8.04396 19.0133 4.90263 15.872 4.90263 11.9733C4.90263 8.07599 8.04396 4.93465 11.9413 4.93465C13.62 4.93465 15.1373 5.53065 16.328 6.50532L19.7946 3.03999C17.6826 1.19865 14.9746 0.0626526 11.9413 0.0626526C5.33596 0.0626526 0.0292969 5.36799 0.0292969 11.9747C0.0292969 18.5813 5.33463 23.8867 11.9413 23.8867C17.8973 23.8867 23.3133 19.5547 23.3133 11.9747C23.3133 11.2707 23.2053 10.512 23.044 9.80799Z" fill="#DB3236"/>
</svg>
