<svg width="26" height="25" viewBox="0 0 26 25" fill="none" xmlns="http://www.w3.org/2000/svg">
<path fill-rule="evenodd" clip-rule="evenodd" d="M18.0429 2.2346C19.7 2.2346 21.2597 2.9358 22.4294 4.13786C23.6966 5.33991 24.379 7.04283 24.184 8.74574C24.184 10.4487 23.5017 12.1516 22.3319 13.3536L13.7538 22.1687C13.5588 22.369 13.3639 22.4692 13.0714 22.4692C12.779 22.4692 12.584 22.369 12.3891 22.1687L3.81096 13.3536C2.64121 12.1516 1.95886 10.4487 1.95886 8.74574C1.95886 7.04283 2.64121 5.33991 3.90844 4.13786C6.34541 1.63358 10.342 1.63358 12.779 4.13786L13.1689 4.53854L13.5588 4.13786C14.7286 2.9358 16.3857 2.2346 18.0429 2.2346ZM13.1689 20.0651L21.0647 11.9512C21.942 11.0497 22.4294 9.94779 22.4294 8.74573C22.4294 7.54368 21.942 6.44179 21.1622 5.54025C20.2849 4.73888 19.2126 4.23802 18.0429 4.23802C16.7756 4.23802 15.7034 4.73888 14.8261 5.54025L13.8513 6.64214C13.4614 7.04282 12.8765 7.04282 12.4866 6.64214L11.4143 5.54025C10.537 4.63871 9.46473 4.23802 8.29498 4.23802C7.22271 4.23802 6.05297 4.63871 5.27314 5.54025C4.49331 6.44179 4.00592 7.54368 4.00592 8.74573C4.00592 9.94779 4.39583 11.0497 5.27314 11.9512L13.1689 20.0651Z" fill="currentColor"/>
</svg>
