<svg xmlns="http://www.w3.org/2000/svg" fill="none" viewBox="0 0 17 17">
    <path fill="#000" fill-rule="evenodd" d="M12.362 1.49c1.105 0 2.145.467 2.924 1.268.845.801 1.3 1.937 1.17 3.072 0 1.135-.455 2.27-1.235 3.072l-5.718 5.877c-.13.133-.26.2-.455.2a.583.583 0 0 1-.455-.2L2.874 8.902A4.467 4.467 0 0 1 1.639 5.83c0-1.135.455-2.27 1.3-3.072a4.117 4.117 0 0 1 5.914 0l.26.267.26-.267a4.228 4.228 0 0 1 2.989-1.269Zm-3.25 11.886 5.264-5.41c.585-.6.91-1.335.91-2.136 0-.802-.325-1.536-.845-2.137-.584-.534-1.3-.868-2.079-.868-.845 0-1.56.334-2.145.868l-.65.734a.617.617 0 0 1-.91 0l-.714-.734c-.585-.601-1.3-.868-2.08-.868-.714 0-1.494.267-2.014.868-.52.6-.845 1.335-.845 2.137 0 .801.26 1.536.845 2.137l5.264 5.41Z" clip-rule="evenodd"/>
    <mask id="a" width="16" height="14" x="1" y="1" maskUnits="userSpaceOnUse" style="mask-type:alpha">
        <path fill="#fff" fill-rule="evenodd" d="M12.362 1.49c1.105 0 2.145.467 2.924 1.268.845.801 1.3 1.937 1.17 3.072 0 1.135-.455 2.27-1.235 3.072l-5.718 5.877c-.13.133-.26.2-.455.2a.583.583 0 0 1-.455-.2L2.874 8.902A4.467 4.467 0 0 1 1.639 5.83c0-1.135.455-2.27 1.3-3.072a4.117 4.117 0 0 1 5.914 0l.26.267.26-.267a4.228 4.228 0 0 1 2.989-1.269Zm-3.25 11.886 5.264-5.41c.585-.6.91-1.335.91-2.136 0-.802-.325-1.536-.845-2.137-.584-.534-1.3-.868-2.079-.868-.845 0-1.56.334-2.145.868l-.65.734a.617.617 0 0 1-.91 0l-.714-.734c-.585-.601-1.3-.868-2.08-.868-.714 0-1.494.267-2.014.868-.52.6-.845 1.335-.845 2.137 0 .801.26 1.536.845 2.137l5.264 5.41Z" clip-rule="evenodd"/>
    </mask>
    <g mask="url(#a)">
        <path fill="#000" d="M.965.141h16.188v16.188H.965z"/>
    </g>
</svg>
