<svg viewBox="0 0 24 24" fill="none" xmlns="http://www.w3.org/2000/svg">
  <path fill-rule="evenodd" clip-rule="evenodd" d="M23.3645 4.13313C22.7395 2.52435 21.4667 1.25222 19.8554 0.6308C18.9238 0.280833 17.9389 0.0932081 16.942 0.0719173C15.6586 0.0160291 15.2521 6.10352e-05 11.9976 6.10352e-05C8.74302 6.10352e-05 8.32588 6.10352e-05 7.05311 0.0719173C6.05888 0.0918774 5.07399 0.279502 4.1424 0.6308C2.52979 1.25222 1.25702 2.52435 0.633296 4.13313C0.282785 5.0646 0.0948687 6.04663 0.0748776 7.04198C0.0175698 8.32208 0.000244141 8.72794 0.000244141 11.9788C0.000244141 15.2283 0.000244141 15.6421 0.0748776 16.9156C0.0948687 17.9109 0.282785 18.8929 0.633296 19.8257C1.25835 21.4332 2.53112 22.7053 4.14374 23.3281C5.07132 23.69 6.05622 23.8949 7.05578 23.9269C8.3392 23.9828 8.74569 24.0001 12.0002 24.0001C15.2548 24.0001 15.6719 24.0001 16.9447 23.9269C17.9403 23.9069 18.9252 23.718 19.8581 23.3693C21.4694 22.7452 22.7421 21.4744 23.3672 19.8657C23.7177 18.9342 23.9056 17.9522 23.9256 16.9568C23.9829 15.6767 24.0002 15.2709 24.0002 12.02C24.0002 8.76919 24.0002 8.35668 23.9256 7.08323C23.9083 6.07458 23.7217 5.07524 23.3645 4.13313ZM21.7412 16.8171C21.7319 17.5836 21.5933 18.3434 21.3268 19.0633C20.9203 20.1105 20.0926 20.9382 19.0451 21.34C18.3321 21.6049 17.5804 21.7432 16.8194 21.7539C15.5533 21.8124 15.1962 21.8271 11.9496 21.8271C8.70038 21.8271 8.36853 21.8271 7.07843 21.7539C6.3201 21.7446 5.56577 21.6049 4.85409 21.34C3.80255 20.9395 2.96959 20.1118 2.56311 19.0633C2.30189 18.3527 2.16062 17.6009 2.14862 16.8424C2.09131 15.5782 2.07799 15.2216 2.07799 11.9801C2.07799 8.73725 2.07799 8.40592 2.14862 7.1165C2.15795 6.35003 2.29656 5.59154 2.56311 4.87165C2.96959 3.82175 3.80255 2.9954 4.85409 2.59354C5.56577 2.33007 6.3201 2.19035 7.07843 2.1797C8.34587 2.12248 8.70171 2.10651 11.9496 2.10651C15.1975 2.10651 15.5307 2.10651 16.8194 2.1797C17.5804 2.18902 18.3321 2.32874 19.0451 2.59354C20.0926 2.99673 20.9203 3.82441 21.3268 4.87165C21.588 5.58223 21.7293 6.33406 21.7412 7.09254C21.7986 8.35801 21.8132 8.7133 21.8132 11.9561C21.8132 15.1977 21.8132 15.5463 21.7559 16.8184H21.7412V16.8171ZM20.0002 5.50006C20.0002 6.32849 19.3287 7.00006 18.5002 7.00006C17.6718 7.00006 17.0002 6.32849 17.0002 5.50006C17.0002 4.67163 17.6718 4.00006 18.5002 4.00006C19.3287 4.00006 20.0002 4.67163 20.0002 5.50006ZM6.00024 11.9994C6.00024 8.68634 8.68551 6.00006 12.0002 6.00006C15.3124 6.00006 18.0002 8.68634 18.0002 11.9994C18.0002 15.3138 15.3124 18.0001 12.0002 18.0001C8.68551 18.0001 6.00024 15.3138 6.00024 11.9994ZM8.10148 12.0007C8.10148 14.1523 9.8471 15.8978 12.0002 15.8978C14.1534 15.8978 15.8964 14.1523 15.8964 12.0007C15.8964 9.8478 14.1534 8.10366 12.0002 8.10366C9.8471 8.10366 8.10148 9.8478 8.10148 12.0007Z" fill="currentColor"></path>
</svg>