<svg viewBox="0 0 24 24" fill="none" xmlns="http://www.w3.org/2000/svg">
<path fill-rule="evenodd" clip-rule="evenodd" d="M3.76794 6.56463C5.29434 6.56463 6.53173 5.32724 6.53173 3.80084C6.53173 2.27444 5.29434 1.03705 3.76794 1.03705C2.24154 1.03705 1.00415 2.27444 1.00415 3.80084C1.00415 5.32724 2.24154 6.56463 3.76794 6.56463ZM9.14141 8.65894V23.9924H13.9023V16.4097C13.9023 14.4088 14.2787 12.4712 16.7595 12.4712C19.2063 12.4712 19.2366 14.7587 19.2366 16.536V23.9937H23.9999V15.5848C23.9999 11.4543 23.1107 8.28 18.2829 8.28C15.965 8.28 14.4113 9.552 13.7759 10.7558H13.7115V8.65894H9.14141ZM1.3831 8.65894H6.15152V23.9924H1.3831V8.65894Z" fill="#0E76A8"/>
</svg>
