<svg width="11" height="14" viewBox="0 0 11 14" fill="none" xmlns="http://www.w3.org/2000/svg">
<path d="M10.188 0.203125H8.07863C7.89215 0.203125 7.71331 0.277204 7.58145 0.409066C7.44958 0.540927 7.3755 0.71977 7.3755 0.90625C7.3755 1.09273 7.44958 1.27157 7.58145 1.40343C7.71331 1.5353 7.89215 1.60938 8.07863 1.60938H8.48879L7.60988 2.49414C6.87381 1.91888 5.96595 1.60732 5.03175 1.60938C3.97352 1.60876 2.9537 2.00588 2.17455 2.72197C1.3954 3.43806 0.913823 4.42081 0.825331 5.47534C0.736839 6.52987 1.04789 7.57915 1.69681 8.41507C2.34572 9.251 3.28509 9.81252 4.32863 9.98828V10.75H3.15676C2.97027 10.75 2.79143 10.8241 2.65957 10.9559C2.52771 11.0878 2.45363 11.2666 2.45363 11.4531C2.45363 11.6396 2.52771 11.8184 2.65957 11.9503C2.79143 12.0822 2.97027 12.1563 3.15676 12.1563H4.32863V13.0938C4.32863 13.2802 4.40271 13.4591 4.53457 13.5909C4.66643 13.7228 4.84527 13.7969 5.03175 13.7969C5.21824 13.7969 5.39708 13.7228 5.52894 13.5909C5.6608 13.4591 5.73488 13.2802 5.73488 13.0938V12.1563H6.90675C7.09324 12.1563 7.27208 12.0822 7.40394 11.9503C7.5358 11.8184 7.60988 11.6396 7.60988 11.4531C7.60988 11.2666 7.5358 11.0878 7.40394 10.9559C7.27208 10.8241 7.09324 10.75 6.90675 10.75H5.73488V9.98828C6.42494 9.87143 7.07509 9.58473 7.62675 9.15401C8.1784 8.7233 8.61424 8.1621 8.89498 7.52099C9.17572 6.87988 9.29254 6.17899 9.23493 5.48148C9.17732 4.78397 8.94708 4.11175 8.56496 3.52539L9.48488 2.60547V3.01563C9.48488 3.20211 9.55896 3.38095 9.69082 3.51281C9.82268 3.64467 10.0015 3.71875 10.188 3.71875C10.3745 3.71875 10.5533 3.64467 10.6852 3.51281C10.817 3.38095 10.8911 3.20211 10.8911 3.01563V0.90625C10.8911 0.71977 10.817 0.540927 10.6852 0.409066C10.5533 0.277204 10.3745 0.203125 10.188 0.203125ZM5.03175 8.64063C4.4755 8.64063 3.93173 8.47567 3.46921 8.16663C3.0067 7.85759 2.64622 7.41834 2.43334 6.90442C2.22047 6.39051 2.16478 5.82501 2.2733 5.27943C2.38182 4.73386 2.64968 4.23272 3.04302 3.83939C3.43635 3.44605 3.93749 3.17819 4.48306 3.06967C5.02864 2.96115 5.59414 3.01684 6.10805 3.22971C6.62197 3.44259 7.06122 3.80307 7.37026 4.26558C7.6793 4.7281 7.84425 5.27187 7.84425 5.82813C7.84425 6.57405 7.54794 7.28942 7.02049 7.81686C6.49305 8.34431 5.77768 8.64063 5.03175 8.64063Z" fill="#6E6B7B"/>
</svg>
