<svg viewBox="0 0 24 24" fill="none" xmlns="http://www.w3.org/2000/svg">
<path d="M22.9626 8.91218C22.863 8.51283 22.564 8.31315 22.1653 8.21332L15.7871 7.31477L12.8969 1.52415C12.598 0.825283 11.402 0.825283 11.1031 1.52415L8.21291 7.21493L1.93431 8.21332C1.53567 8.21332 1.23669 8.51283 1.03737 8.91218C0.937712 9.31154 1.03737 9.71089 1.33635 9.91057L5.92072 14.4033L4.82446 20.7929C4.7248 21.1923 4.92412 21.5916 5.2231 21.7913C5.52208 21.991 5.92072 22.0908 6.31937 21.8912L12 18.896L17.6806 21.8912C17.88 21.8912 17.9796 21.8912 18.1789 21.8912C18.3783 21.8912 18.5776 21.7913 18.7769 21.6915C19.0759 21.4918 19.2752 21.0925 19.1755 20.6931L18.0793 14.3035L22.6636 9.81073C22.9626 9.61105 23.0623 9.2117 22.9626 8.91218Z" fill="currentColor"/
</svg>
