<svg width="14" height="14" viewBox="0 0 14 14" fill="none" xmlns="http://www.w3.org/2000/svg">
<path fill-rule="evenodd" clip-rule="evenodd" d="M12.8966 6.3087L7.92724 1.33936C7.81167 1.2238 7.69611 1.16602 7.52276 1.16602H1.74446C1.39776 1.16602 1.16663 1.39715 1.16663 1.74385V7.52215C1.16663 7.6955 1.22441 7.81106 1.33998 7.92663L6.30931 12.896C6.65601 13.2427 7.06049 13.416 7.52276 13.416C7.98502 13.416 8.44729 13.2427 8.7362 12.896L12.8966 8.73559C13.59 8.04219 13.59 7.0021 12.8966 6.3087ZM12.0876 7.92663L7.92724 12.087C7.69611 12.3181 7.34941 12.3181 7.11828 12.087L2.32229 7.29102V2.32168H7.29163L12.0876 7.11767C12.3187 7.3488 12.3187 7.6955 12.0876 7.92663ZM5.21144 4.633C5.21144 4.45965 5.15365 4.34408 5.03809 4.22852C4.98031 4.17073 4.92252 4.11295 4.86474 4.11295C4.63361 3.99738 4.40248 4.05517 4.22913 4.22852C4.11356 4.34408 4.05578 4.45965 4.05578 4.633C4.05578 4.69078 4.05578 4.80635 4.11356 4.86413C4.11356 4.92191 4.17134 4.9797 4.22913 5.03748C4.34469 5.15304 4.46026 5.21083 4.63361 5.21083C4.80696 5.21083 4.92252 5.15304 5.03809 5.03748C5.15365 4.92191 5.21144 4.80635 5.21144 4.633Z" fill="currentColor"/>
</svg>
