<svg xmlns="http://www.w3.org/2000/svg" width="14" height="14" fill="none"><path fill="currentColor" fill-rule="evenodd" d="m8.555 2.032 5.14 8.202c.169.213.234.525.291.8L14 11.1c0 .462-.184.866-.55 1.213-.307.346-.796.52-1.285.52H1.763c-.306 0-.612-.058-.856-.231-.857-.462-1.163-1.56-.673-2.368l5.14-8.26c.121-.23.366-.461.61-.577a1.973 1.973 0 0 1 1.408-.173c.49.115.918.404 1.163.808Zm3.61 9.646a.682.682 0 0 0 .428-.174c.013-.025.03-.05.046-.075.06-.093.124-.193.076-.329 0-.115 0-.231-.061-.289l-5.2-8.143a.684.684 0 0 0-.857-.174c-.041 0-.082.052-.123.103-.02.026-.04.051-.06.07l-5.201 8.144c-.123.289-.062.636.244.809.123.058.184.058.306.058h10.402Z" clip-rule="evenodd"/><mask id="a" width="14" height="12" x="0" y="1" maskUnits="userSpaceOnUse" style="mask-type:alpha"><path fill="#fff" fill-rule="evenodd" d="m8.555 2.032 5.14 8.202c.169.213.234.525.291.8L14 11.1c0 .462-.184.866-.55 1.213-.307.346-.796.52-1.285.52H1.763c-.306 0-.612-.058-.856-.231-.857-.462-1.163-1.56-.673-2.368l5.14-8.26c.121-.23.366-.461.61-.577a1.973 1.973 0 0 1 1.408-.173c.49.115.918.404 1.163.808Zm3.61 9.646a.682.682 0 0 0 .428-.174c.013-.025.03-.05.046-.075.06-.093.124-.193.076-.329 0-.115 0-.231-.061-.289l-5.2-8.143a.684.684 0 0 0-.857-.174c-.041 0-.082.052-.123.103-.02.026-.04.051-.06.07l-5.201 8.144c-.123.289-.062.636.244.809.123.058.184.058.306.058h10.402Z" clip-rule="evenodd"/></mask><g mask="url(#a)"><path fill="currentColor" d="M0 0h14v14H0z"/></g></svg>
