<svg viewBox="0 0 24 24" fill="none" xmlns="http://www.w3.org/2000/svg">
  <path fill-rule="evenodd" clip-rule="evenodd" d="M21.1596 6.51069C21.1752 6.72069 21.1752 6.92949 21.1752 7.13829C21.1752 13.5283 16.3116 20.8915 7.4232 20.8915C4.6848 20.8915 2.1408 20.0983 0 18.7207C0.3888 18.7651 0.7632 18.7807 1.1676 18.7807C3.4272 18.7807 5.5068 18.0175 7.1688 16.7155C5.0436 16.6711 3.2628 15.2791 2.6484 13.3639C2.9472 13.4083 3.2472 13.4383 3.5616 13.4383C3.9948 13.4383 4.4304 13.3783 4.8348 13.2739C2.6184 12.8251 0.9588 10.8799 0.9588 8.53029V8.47029C1.6032 8.82909 2.3508 9.05349 3.1428 9.08349C1.8408 8.21709 0.9876 6.73509 0.9876 5.05869C0.9876 4.16109 1.2264 3.33789 1.6452 2.62029C4.0248 5.55189 7.602 7.46829 11.6124 7.67829C11.538 7.31829 11.4924 6.94509 11.4924 6.57069C11.4924 3.90669 13.6476 1.73709 16.326 1.73709C17.718 1.73709 18.9744 2.32029 19.8576 3.26349C20.9496 3.05349 21.996 2.64909 22.9248 2.09589C22.566 3.21789 21.8016 4.16109 20.7996 4.75989C21.7728 4.65429 22.716 4.38549 23.5824 4.01109C22.9248 4.96869 22.1028 5.82189 21.1596 6.51069Z" fill="currentColor"></path>
</svg>