<svg width="22" height="22" viewBox="0 0 22 22" fill="none" xmlns="http://www.w3.org/2000/svg">
<path d="M17.8749 1.03125H14.7812C14.5077 1.03125 14.2454 1.1399 14.052 1.3333C13.8586 1.52669 13.7499 1.789 13.7499 2.0625C13.7499 2.336 13.8586 2.59831 14.052 2.7917C14.2454 2.9851 14.5077 3.09375 14.7812 3.09375H15.3828L14.0937 4.39141C13.0141 3.54769 11.6826 3.09074 10.3124 3.09375C8.76037 3.09285 7.26463 3.67528 6.12188 4.72555C4.97912 5.77581 4.27281 7.2172 4.14302 8.76384C4.01323 10.3105 4.46945 11.8494 5.42119 13.0754C6.37292 14.3015 7.75067 15.125 9.28119 15.3828V16.5H7.56244C7.28894 16.5 7.02664 16.6086 6.83324 16.802C6.63984 16.9954 6.53119 17.2577 6.53119 17.5312C6.53119 17.8048 6.63984 18.0671 6.83324 18.2605C7.02664 18.4539 7.28894 18.5625 7.56244 18.5625H9.28119V19.9375C9.28119 20.211 9.38984 20.4733 9.58324 20.6667C9.77664 20.8601 10.0389 20.9688 10.3124 20.9688C10.5859 20.9688 10.8482 20.8601 11.0416 20.6667C11.235 20.4733 11.3437 20.211 11.3437 19.9375V18.5625H13.0624C13.3359 18.5625 13.5982 18.4539 13.7916 18.2605C13.985 18.0671 14.0937 17.8048 14.0937 17.5312C14.0937 17.2577 13.985 16.9954 13.7916 16.802C13.5982 16.6086 13.3359 16.5 13.0624 16.5H11.3437V15.3828C12.3558 15.2114 13.3093 14.7909 14.1184 14.1592C14.9275 13.5275 15.5667 12.7044 15.9785 11.7641C16.3903 10.8238 16.5616 9.79586 16.4771 8.77284C16.3926 7.74983 16.0549 6.7639 15.4945 5.90391L16.8437 4.55469V5.15625C16.8437 5.42975 16.9523 5.69206 17.1457 5.88545C17.3391 6.07885 17.6014 6.1875 17.8749 6.1875C18.1484 6.1875 18.4107 6.07885 18.6041 5.88545C18.7975 5.69206 18.9062 5.42975 18.9062 5.15625V2.0625C18.9062 1.789 18.7975 1.52669 18.6041 1.3333C18.4107 1.1399 18.1484 1.03125 17.8749 1.03125ZM10.3124 13.4062C9.4966 13.4062 8.69907 13.1643 8.02072 12.7111C7.34236 12.2578 6.81365 11.6136 6.50144 10.8598C6.18923 10.1061 6.10754 9.27667 6.2667 8.4765C6.42587 7.67633 6.81874 6.94133 7.39563 6.36443C7.97252 5.78754 8.70752 5.39467 9.5077 5.23551C10.3079 5.07635 11.1373 5.15804 11.891 5.47025C12.6448 5.78246 13.289 6.31117 13.7423 6.98952C14.1955 7.66788 14.4374 8.4654 14.4374 9.28125C14.4374 10.3753 14.0028 11.4245 13.2293 12.1981C12.4557 12.9717 11.4065 13.4062 10.3124 13.4062Z" fill="currentColor"/>
</svg>
